# xmcd
#
# Track frame offsets:
#	150
#	20242
#	35437
#	47681
#	65321
#	76875
#	88633
#	101610
#	117979
#	135371
#	147075
#	164973
#	179433
#	194191
#	213385
#	227025
#	238857
#	268800
#	282430
#	295783
#	310870
#	322652
#	333088
#	344068
#
# Disc length: 4785 seconds
#
# Revision: 0
# Processed by: cddbd v1.4PL0 Copyright (c) Steve Scherf et al.
# Submitted via: EasyCDDAExtractor 4.6.9.1
#
DISCID=6f12af18
DTITLE=Joe Dassin - The Best of Retro
DYEAR=1900
DGENRE=
TTITLE0=L'ete Indien
TTITLE1=Et Si Tu N'Existais Pas
TTITLE2=A Toi
TTITLE3=Le Cafe Des 3 Colombers
TTITLE4=Taka Takata
TTITLE5=Les Champs-Elysees
TTITLE6=Ma Musique
TTITLE7=Que Sont Devenues Mes Amours?
TTITLE8=Il Etait Une Fois Nous Deux
TTITLE9=Siffler Sur La Colline
TTITLE10=Salut Appelles Melanoclie
TTITLE11=Si Tu T'Appelles Melancolie
TTITLE12=Salut
TTITLE13=The Guitar Don't Lie
TTITLE14=L'Albatros
TTITLE15=Ma Bonne Etoile
TTITLE16=Le Jardin Du Luxembourg
TTITLE17=Ca Va Pas Changer Le Monde
TTITLE18=Vade Retro
TTITLE19=Chason Triste
TTITLE20=Piano Mecanique
TTITLE21=Le Moustique
TTITLE22=Le Chemin De Papa
TTITLE23=Le Petit Pain Au Chocolat
EXTD=
EXTT0=
EXTT1=
EXTT2=
EXTT3=
EXTT4=
EXTT5=
EXTT6=
EXTT7=
EXTT8=
EXTT9=
EXTT10=
EXTT11=
EXTT12=
EXTT13=
EXTT14=
EXTT15=
EXTT16=
EXTT17=
EXTT18=
EXTT19=
EXTT20=
EXTT21=
EXTT22=
EXTT23=
PLAYORDER=
